<?xml version="1.0" encoding="UTF-8"?>
<!DOCTYPE svg PUBLIC "-//W3C//DTD SVG 1.1//EN" "http://www.w3.org/Graphics/SVG/1.1/DTD/svg11.dtd">
<!-- Creator: CorelDRAW -->
<svg xmlns="http://www.w3.org/2000/svg" xml:space="preserve" width="210mm" height="297mm" version="1.1" style="shape-rendering:geometricPrecision; text-rendering:geometricPrecision; image-rendering:optimizeQuality; fill-rule:evenodd; clip-rule:evenodd"
viewBox="0 0 21000 29700"
 xmlns:xlink="http://www.w3.org/1999/xlink"
 xmlns:xodm="http://www.corel.com/coreldraw/odm/2003">
 <defs>
  <style type="text/css">
   <![CDATA[
    .fil6 {fill:none}
    .fil5 {fill:url(#id0)}
    .fil2 {fill:url(#id1)}
    .fil3 {fill:url(#id2)}
    .fil0 {fill:url(#id3)}
    .fil4 {fill:url(#id4)}
    .fil1 {fill:url(#id5)}
   ]]>
  </style>
  <linearGradient id="id0" gradientUnits="userSpaceOnUse" x1="12824.8" y1="16663.02" x2="6027.5" y2="18279.66">
   <stop offset="0" style="stop-opacity:1; stop-color:#2AC8BB"/>
   <stop offset="0.4" style="stop-opacity:1; stop-color:#50D5C3"/>
   <stop offset="0.478431" style="stop-opacity:1; stop-color:#77E2CC"/>
   <stop offset="1" style="stop-opacity:1; stop-color:#04646D"/>
  </linearGradient>
  <linearGradient id="id1" gradientUnits="userSpaceOnUse" x1="10805.47" y1="9231" x2="18427.05" y2="17974.52">
   <stop offset="0" style="stop-opacity:1; stop-color:#2AC8BB"/>
   <stop offset="1" style="stop-opacity:1; stop-color:#04646D"/>
  </linearGradient>
  <linearGradient id="id2" gradientUnits="userSpaceOnUse" xlink:href="#id1" x1="11438.25" y1="15069.71" x2="7740.25" y2="19909">
  </linearGradient>
  <linearGradient id="id3" gradientUnits="userSpaceOnUse" x1="12973.62" y1="10322.74" x2="7532.21" y2="11815.01">
   <stop offset="0" style="stop-opacity:1; stop-color:#2AC8BB"/>
   <stop offset="0.305882" style="stop-opacity:1; stop-color:#50D5C3"/>
   <stop offset="0.470588" style="stop-opacity:1; stop-color:#77E2CC"/>
   <stop offset="1" style="stop-opacity:1; stop-color:#04646D"/>
  </linearGradient>
  <linearGradient id="id4" gradientUnits="userSpaceOnUse" xlink:href="#id1" x1="7515.6" y1="11046.58" x2="12153.7" y2="11902.96">
  </linearGradient>
  <linearGradient id="id5" gradientUnits="userSpaceOnUse" x1="14222.39" y1="20340.04" x2="13297.2" y2="7723.25">
   <stop offset="0" style="stop-opacity:1; stop-color:#2AC8BB"/>
   <stop offset="0.478431" style="stop-opacity:1; stop-color:#77E2CC"/>
   <stop offset="1" style="stop-opacity:1; stop-color:#04646D"/>
  </linearGradient>
 </defs>
 <g id="Слой_x0020_1">
  <metadata id="CorelCorpID_0Corel-Layer"/>
  <path class="fil0" d="M7657.1 14554.93c-206.56,554.6 -105.13,277.89 -134.35,353.02 0.96,4.23 -0.98,-3.38 0,0 -1.95,11.63 1.22,3.8 6.66,-0.49 2709.29,-1487.3 2262.54,-644.99 3619.54,-1210.05 923.19,-520.16 855.33,-1265.36 1273.38,-2206.95l365.98 -252.43c50.29,-116.19 196.97,-387.96 195.35,-488.6 -136.93,-822.43 -1140.03,-3369.46 -1548.51,-3498.5 -401.34,-126.76 -649.93,227.86 -728.22,273.12 -3.88,2.26 -2.63,58.38 -21.84,8.78 -1.25,-3.22 -7.2,2.69 -10.98,3.11 -23.41,104.17 -176.24,398 -230.87,530.31 -8.56,20.72 -17.16,41.35 -25.8,61.92 94.94,-88.58 265.86,-232.71 506.66,-156.64 321.49,101.55 1079.18,1999.57 1186.96,2646.84 1.27,79.21 -269.45,373.72 -212.29,478.14l-212.66 708.61 -44.73 111.67c-35.87,141.69 -338.09,752.72 -470.51,899.86 -74.82,83.13 -113.4,166.25 -214.87,216.15 -41.63,40.65 -17.26,26.38 -69.3,63.79l-247.48 139.58c-114.43,48.23 -289.63,90.51 -419.12,91.04l-177.73 20.22c-242.45,18.74 -1203.29,10.02 -1365.07,216.6 -64.66,13.24 -209.11,187.16 -272,225.09 -196.73,23.27 -240.56,205.77 -331.93,314.36 -144.97,172.29 -54.5,0.48 -126.65,132.46 -66.33,121.33 -37.54,17.51 -110.6,149.93l-169.69 192.58c-2.16,-3.64 -4.23,-8.99 -5.01,-11.68 -0.77,-2.67 -3.57,-8.51 -4.32,-11.84 -5.59,-24.67 -13.18,58.67 0,0z"/>
  <path class="fil1" d="M12422.33 11466.4c1224.11,3814.6 2826.73,8558.5 3511.65,8713.44 224.07,166.54 474.72,168.45 828.2,189.15l422.28 -20.51c-324.71,-117.99 -303,-136.03 -625.94,-388.36 -168.29,-131.48 5.13,-128.38 -121.09,-280.32 -22.3,-26.84 -9.94,-9.16 -31.25,-33.21 -160.77,-181.44 -327.12,-522.54 -408.22,-737.97 -100.08,-265.8 -696.13,-1078.03 -767.24,-1199.62 -61.58,-163.08 -263.62,-1118.82 -336.02,-1183.76 0.14,-72.3 -27.84,-92.12 -38.52,-164.58 -100.03,-138.93 -136.27,-418.33 -228.25,-574.3 -8.33,-37.16 -132.61,-877.98 -200.21,-951.69 1.39,-156.86 -266.38,-640.88 -277.15,-822.86 -69.05,-66.55 -191.15,-1207.95 -274.46,-1401.96 -15.64,-86.92 -105.4,-323.74 -142.12,-417.34 -30.76,-78.38 -131.88,-332.91 -138.36,-410.25 -48.75,-45.75 -757.37,-1133 -805.1,-1285.3 -41.06,-63.98 -275.17,-766.23 -317.46,-893.19 -102.07,-306.36 -408.99,-593.65 -504.22,-875.8 -66.5,-197.03 -171.68,-448.12 -301.16,-620.54l-65.68 -80.47c-94.31,-140.29 -248.08,-251.78 -413.33,-287.78 -228.05,-155.52 -708.99,127.77 -788.41,322.19l-65.13 158.98c2.98,-0.33 27.66,15.04 28.64,17.57 15.12,38.81 14.14,-5.11 17.19,-6.87 61.62,-35.43 219.6,-248.39 535.47,-149.18 408.63,128.35 1226.97,2562.79 1505.89,3384.53z"/>
  <path class="fil2" d="M16283.21 19896.61c574.42,437.4 1213.69,470.24 448.97,452.38 371.46,7.72 846.89,27.57 1210.14,-6.21 385.06,-35.8 624.51,-209.62 766.22,-444.22 183.45,-303.73 138,-673.06 24.27,-988.81 -186.35,-517.39 -479.53,-1209.74 -692.99,-1745.52l-696.68 -1743.45c-117.95,-291.98 -226.33,-598.79 -348.25,-875.93l-683.56 -1712.64 -774.99 -1971.19 -646.39 -1666.88c-62.1,-249.49 -493.46,-1233.6 -603.99,-1413.24 -120.41,-195.68 -279.48,-409.33 -455.75,-546.21 -166.6,-129.38 -410.56,-268.1 -678.12,-325.72 -454.92,-97.96 -1410.96,-95.62 -1814.73,75.51 -270.33,114.58 -440.47,254.85 -579.11,424.21 -130.4,159.3 -290.9,404.48 -357.98,652.68l26.08 -29.93c11.94,-14.86 16.33,-23.65 28.94,-37.52 212.02,-175.33 334.03,-341.28 653.19,-271.74 1237.5,55.19 3692.61,10279.08 5174.73,12174.43z"/>
  <path class="fil3" d="M12823.17 14741.5c-67.35,61.06 -59.65,80.68 -59.87,122.77 -240.33,412.49 -122.04,121.16 -28.23,101.66 -156.96,98.13 -44.91,136.39 -305.77,244.98 -633.8,263.83 -1074.43,247.38 -1739.96,278.96 -314.02,14.9 -660.41,-0.44 -960.31,44.58 -189.81,-6.53 -780.43,108.02 -914.1,218.75 -72.93,2.78 -305.35,127.16 -367.58,163.63 -80.9,68.95 -345.98,209.18 -452.36,320.05 -102.62,41.89 -417.22,389.47 -504.94,495.33l-142.17 185.83c-17.29,59.53 -90.01,155.3 -131.16,219.42 -48.61,75.75 -90.24,138.18 -131.39,222.16 -60.65,138.33 -127.93,264.94 -190.13,410.54 -55.24,129.33 -104.83,284.21 -164.99,406.22l-128.55 350.3c-60.21,148.21 -315.9,831.61 -339.28,950.69 -52.75,268.57 -8.3,568.35 206.28,733.84 46.49,35.86 159.48,90.13 213.36,126.56 275.86,6.16 1192.53,14.96 1420.06,-18.43 346.52,-50.84 736.71,-259.89 913.36,-536.28l14.93 -12.06c1.59,-1.51 5.57,-5.03 7.31,-6.82l139.72 -214.37c42.12,-76.53 89.4,-185.5 121.61,-266.13 44.78,-112.07 228.76,-472.37 236.46,-532.95 49.7,-37.01 67.07,-93.98 102.16,-146.12 67.42,-100.13 123.94,-194.59 204.95,-279.41 40.46,-42.36 90.43,-90.88 112.69,-140.57 69.31,-38.31 117.82,-101.79 188.93,-154.96 68.9,-51.52 129.33,-97.19 210.16,-145.23 142.6,-84.75 305.66,-153.86 476.28,-213.07 849.23,-208.15 1141.98,-575.25 1512.7,-1175.56 128.06,-207.36 499.85,-1549.8 561.39,-1772.6l31.59 -88.12 -88.9 80.11c-47.25,25.55 -15.72,28.55 -24.25,26.3z"/>
  <path class="fil4" d="M7522.13 14913.77c252.75,-441.16 528.79,-881.53 993.43,-1160.26 500.37,-300.14 995.59,-327.29 1578.34,-372.1 1329.32,-150.44 1466.58,-1234.69 1905.17,-2263.84 39.58,-90.93 149.37,-335.33 148.1,-414.09 -157.6,-561.07 -765.9,-2540.63 -1250.73,-2641.61 -315.87,-99.21 -473.85,113.75 -535.47,149.18 -3.05,1.76 -2.07,45.68 -17.19,6.87 -0.98,-2.53 -5.66,2.1 -8.64,2.43 -229.56,1015.4 -2778.7,6287.49 -2813.01,6693.42z"/>
  <path class="fil5" d="M6772.02 20347.77c-53.88,-36.43 -166.87,-90.7 -213.36,-126.56 -214.58,-165.49 -259.03,-465.27 -206.28,-733.84 23.38,-119.08 279.07,-802.48 339.28,-950.69 805.22,-2194.31 1946.55,-2935.23 4087.68,-3036.81 665.53,-31.58 1115.34,21.59 1749.14,-242.24 268.45,-111.75 227.39,-385.76 376.25,-524.42 -14.61,-47.76 111.36,-167.76 0.44,-131.6 -217.72,65.15 -354.22,177.93 -566.01,194.83 -773.72,115.84 -1508.73,109.77 -2287.19,148.91 -398.93,20.05 -698.76,62.51 -1065.37,165.35 -1688.14,473.5 -2862.18,2634.6 -3075.72,4248.34 -77.25,583.69 308,980.32 861.14,988.73z"/>
  <path class="fil6" d="M-3235.37 52722.28l348.7 -823.67c-4.36,-131.59 -479.68,-1454.54 -544.76,-1552.85 2.77,171.97 -249.28,636.34 -335.7,834.87l-269.44 632.25 -392.05 878.05 -97.65 242.44c-78.33,307.63 -738.2,1634.21 -1027.31,1953.66 -163.38,180.51 -247.6,360.95 -469.15,469.28 -90.9,88.28 -37.68,57.26 -151.32,138.48l-540.34 303.06c-249.85,104.73 -632.38,196.52 -915.1,197.64l-388.05 43.92c-251.56,19.34 -1380.32,39.84 -1524.05,190.42l28.18 61.59c-336.07,16.54 -1313.59,265.92 -1467.82,461.75 -9.17,1.87 -18.22,3.91 -27.17,6.13m637.58 917.47c265.63,-28.45 579.79,-134.68 864.91,-183.98 304.73,-52.7 606.36,-89.54 915.11,-128.61l744.01 -65.87c515.46,-60.87 943.44,-159.49 1390.89,-315.46 1078.57,-410.94 1856.51,-1252.16 2337.16,-2288.87l531.54 -1160.98c82.12,-239.02 231.16,-575.06 351.83,-810.72m-9996.91 6265.68c55.32,210.32 405.23,-133.06 632.74,-283.53 227.57,-150.51 421.37,-268.24 680.25,-411.47 246.89,-136.6 482.72,-242.27 750.71,-345.2 192.29,-73.85 640.32,-186.93 797.76,-270.99m-637.83 -917.4c-128.7,31.98 -236.03,99.59 -364.35,176.56 -288.61,173.13 -744.14,509.16 -943.65,744.93 -316.53,374.06 -118.98,1.04 -276.53,287.58 -144.82,263.39 -81.95,38 -241.47,325.48l-397.63 694.04"/>
 </g>
</svg>
